<svg width="21" height="20" viewBox="0 0 21 20" fill="none" xmlns="http://www.w3.org/2000/svg">
<g clip-path="url(#clip0_102_2203)">
<path d="M16.0016 19.9999H8.34201V17.8721H7.1346C5.89557 17.8671 4.78743 17.0995 4.34735 15.9413L3.90058 14.7445C3.8384 14.5781 3.67929 14.4678 3.50164 14.4679H3.23563C2.85945 14.4684 2.50228 14.3032 2.25933 14.016C2.01639 13.729 1.91229 13.3493 1.97493 12.9786C2.07607 12.3721 2.63458 11.9147 3.27818 11.9147H4.23562C5.08679 11.9136 5.85676 12.42 6.19305 13.2019L6.69842 14.3775C6.83244 14.6903 7.1399 14.8932 7.48024 14.8935H8.34201C8.4165 13.8508 8.76214 13.0265 9.35259 12.4466L9.46962 12.3349C6.76746 11.4413 4.93781 9.24981 4.93781 6.80835C4.94326 5.80945 5.23904 4.83377 5.78882 3.99974V2.22853C5.78866 1.53647 5.94886 0.8536 6.25695 0.233846L6.37928 -0.000217493H7.11326C8.01709 -0.00380169 8.88478 0.354306 9.52292 0.994474L9.72504 1.19659C11.3265 0.731114 13.0276 0.731114 14.6293 1.19659L14.8314 0.994474C15.4682 0.355709 16.3337 -0.00239918 17.2356 -0.000217493H17.9696L18.0866 0.233846C18.3947 0.8536 18.5549 1.53647 18.5548 2.22853V3.99974C19.1045 4.83377 19.4003 5.80945 19.4058 6.80835C19.4058 9.24981 17.576 11.4413 14.874 12.3349L14.9749 12.436C15.6293 13.078 15.9991 13.9554 16.0016 14.8722V19.9999ZM9.19302 19.1487H15.1506V14.8722C15.1476 14.1854 14.8699 13.5282 14.3792 13.0477L13.1984 11.8934L13.9538 11.7179C16.6611 11.0796 18.5548 9.06359 18.5548 6.80835C18.5488 5.93474 18.278 5.08342 17.7781 4.36689L17.7037 4.26045V2.22853C17.7039 1.75604 17.6117 1.28807 17.4324 0.850951H17.2356C16.5585 0.850327 15.9093 1.12023 15.4325 1.60083L14.8579 2.17009L14.6079 2.08485C13.0242 1.57262 11.3194 1.57262 9.73563 2.08485L9.48568 2.17009L8.91111 1.60083C8.43426 1.12023 7.78506 0.850327 7.10796 0.850951H6.91114C6.73193 1.28807 6.63968 1.75604 6.63983 2.22853V4.26045L6.56534 4.36689C6.06558 5.08342 5.79474 5.93474 5.78882 6.80835C5.78882 9.06359 7.68236 11.0796 10.3898 11.7126L11.1452 11.8881L9.94835 13.0584C9.50687 13.4891 9.25161 14.1274 9.18772 14.9625C9.15188 15.4034 8.78427 15.7431 8.34201 15.7445H7.48024C6.79956 15.7442 6.18448 15.3383 5.91645 14.7126L5.41653 13.5371C5.21426 13.0679 4.75174 12.7645 4.24092 12.7657H3.28347C3.05471 12.7657 2.85259 12.92 2.8208 13.1168C2.79883 13.2401 2.83233 13.3668 2.91228 13.4631C2.99222 13.5594 3.1105 13.6157 3.23563 13.6169H3.49619C4.02883 13.618 4.50521 13.9482 4.69299 14.4466L5.13993 15.6381C5.45331 16.4684 6.24713 17.0186 7.1346 17.0211H8.34201C8.812 17.0211 9.19302 17.4021 9.19302 17.8721V19.1487Z" fill="#A7B6BD"/>
</g>
<defs>
<clipPath id="clip0_102_2203">
<rect width="20" height="20" fill="white" transform="translate(0.667236)"/>
</clipPath>
</defs>
</svg>
