<svg width="210" height="102" viewBox="0 0 210 102" fill="none" xmlns="http://www.w3.org/2000/svg">
<path d="M121.499 31.5442L114.191 48.2665C113.548 49.699 112.787 50.7222 111.91 51.4238C111.033 52.0962 109.952 52.4178 108.665 52.4178C107.847 52.4178 107.028 52.3301 106.21 52.1255V49.3774C107.145 49.4651 107.73 49.4943 107.964 49.4943C108.724 49.4943 109.367 49.3482 109.893 49.0266C110.419 48.7342 110.858 48.1495 111.238 47.331L111.852 45.9277L105.83 31.6027H109.309L113.635 42.5657L118.079 31.6027L121.499 31.5442Z" fill="white"/>
<path d="M132.112 31.2811C134.217 31.2811 136 32.012 137.403 33.5029C138.807 34.9939 139.508 36.8942 139.508 39.0868C139.508 41.2794 138.807 43.1796 137.432 44.6706C136.058 46.1616 134.304 46.8924 132.199 46.8924C131.118 46.8924 130.095 46.6878 129.159 46.2493C128.253 45.8107 127.522 45.2261 126.966 44.466V46.5709H123.955V23.6216H127.171V33.386C128.37 31.9535 130.065 31.2226 132.229 31.2226L132.112 31.2811ZM131.644 44.0274C132.96 44.0274 133.983 43.5304 134.889 42.6242C135.766 41.7179 136.205 40.5193 136.205 39.0575C136.205 37.625 135.766 36.4849 134.889 35.5201C134.012 34.6138 132.901 34.1461 131.586 34.1461C130.328 34.1461 129.276 34.5846 128.37 35.4324C127.463 36.2802 127.054 37.5081 127.054 39.116C127.054 40.7239 127.522 41.981 128.399 42.7996C129.276 43.6181 130.358 44.0274 131.615 44.0274H131.644Z" fill="white"/>
<path d="M98.3456 62.9131C100.07 62.9131 101.474 63.4978 102.468 64.5795C103.462 65.6612 103.959 67.0937 103.959 68.9355V78.3491H100.743V69.374C100.743 68.3508 100.45 67.4737 99.8366 66.8598C99.2226 66.2166 98.4333 65.895 97.4686 65.895C96.4746 65.895 95.656 66.2166 95.0128 66.8598C94.3697 67.503 94.0773 68.3215 94.0773 69.3155V78.3491H90.8323V63.2639H93.8434V64.7549C94.9836 63.527 96.4746 62.9423 98.3456 62.9423V62.9131Z" fill="white"/>
<path d="M121.85 71.8005H110.654C110.858 73.0576 111.414 74.0223 112.291 74.7532C113.168 75.4548 114.279 75.7764 115.594 75.7764C117.144 75.7764 118.635 75.1917 119.979 74.0223L121.5 76.2149C119.804 77.8229 117.787 78.6122 115.507 78.6122C113.197 78.6122 111.238 77.8521 109.718 76.3611C108.198 74.8701 107.438 72.9699 107.438 70.7773C107.438 68.5846 108.198 66.7136 109.689 65.1934C111.18 63.6732 113.022 62.9131 115.185 62.9131C117.173 62.9131 118.839 63.5563 120.155 64.8718C121.47 66.1874 122.143 67.8538 122.143 69.8417C122.143 69.7833 122.114 71.0404 121.85 71.8005ZM115.068 65.6319C114.016 65.6319 113.08 65.9535 112.261 66.6259C111.472 67.2983 110.946 68.1754 110.712 69.3447H118.898C118.868 68.2046 118.488 67.3275 117.758 66.6259C117.027 65.9535 116.12 65.6319 115.01 65.6319H115.068Z" fill="white"/>
<path d="M156.611 40.1393H145.414C145.618 41.3964 146.174 42.3612 147.051 43.092C147.928 43.7937 149.039 44.1152 150.354 44.1152C151.904 44.1152 153.395 43.5306 154.74 42.3612L156.26 44.5538C154.564 46.1617 152.547 46.951 150.267 46.951C147.957 46.951 145.998 46.1909 144.478 44.6999C142.958 43.209 142.198 41.3087 142.198 39.1161C142.198 36.9235 142.958 35.0525 144.449 33.5323C145.94 32.0121 147.782 31.252 149.945 31.252C151.933 31.252 153.599 31.8951 154.915 33.2107C156.23 34.5262 156.903 36.1926 156.903 38.1806C156.903 38.1221 156.903 39.35 156.611 40.1393ZM149.828 33.9708C148.776 33.9708 147.84 34.2924 147.022 34.9648C146.232 35.6372 145.706 36.5142 145.472 37.6836H153.658C153.629 36.5434 153.249 35.6664 152.518 34.9648C151.787 34.2924 150.881 33.9708 149.77 33.9708H149.828Z" fill="white"/>
<path d="M133.427 75.6888C133.895 75.6888 134.509 75.6011 135.386 75.5134V78.2614C134.392 78.4661 133.486 78.583 132.696 78.583C130.972 78.583 129.598 78.1445 128.633 77.2967C127.668 76.4489 127.171 75.1333 127.171 73.3792V66.0413H124.745V63.2348H127.171V59.2881H130.416V63.2348H134.889V66.0413H130.416V73.0869C130.416 74.0224 130.65 74.6948 131.147 75.1041C131.644 75.5134 132.375 75.6888 133.34 75.6888H133.427Z" fill="white"/>
<path d="M161.61 63.2346L154.944 78.6121H153.862L149.156 68.6138L144.449 78.6121H143.367L136.702 63.2346H140.151L144.098 73.0575L148.659 62.8838H149.74L154.359 72.9113L158.248 63.2054H161.668V63.2346H161.61Z" fill="white"/>
<path d="M176.549 65.1349C174.999 63.644 173.128 62.9131 170.936 62.9131C168.714 62.9131 166.843 63.6732 165.293 65.1642C163.773 66.6551 163.013 68.5554 163.013 70.7188C163.013 72.9114 163.773 74.7824 165.293 76.2734C166.813 77.7643 168.714 78.5244 170.936 78.5537C173.128 78.5537 174.999 77.7936 176.578 76.2734C178.127 74.7532 178.887 72.8529 178.887 70.6895C178.917 68.5262 178.127 66.6259 176.549 65.1349ZM174.21 74.1977C173.333 75.104 172.222 75.5717 170.906 75.5717C169.562 75.5717 168.48 75.104 167.574 74.1977C166.697 73.2914 166.258 72.122 166.258 70.7188C166.258 69.3155 166.697 68.1753 167.574 67.2106C168.451 66.3043 169.562 65.8366 170.906 65.8073H170.936C172.251 65.8366 173.333 66.3043 174.239 67.2106C175.116 68.1169 175.555 69.2863 175.555 70.7188C175.555 72.0928 175.087 73.2914 174.21 74.1977Z" fill="white"/>
<path d="M189.967 63.0884C190.435 63.0884 190.815 63.1468 191.195 63.2346V66.0996H190.201C188.944 66.0996 187.921 66.4504 187.073 67.1812C186.254 67.9121 185.816 68.9061 185.816 70.2509V78.3489H182.6V63.2638H185.611V65.2225C186.664 63.8192 188.125 63.1176 190.026 63.1176L189.967 63.0884Z" fill="white"/>
<path d="M168.217 31.4565C168.684 31.4565 169.064 31.515 169.444 31.6027V34.4677H168.48C167.223 34.4677 166.199 34.8185 165.352 35.5494C164.533 36.2803 164.094 37.2743 164.094 38.6191V46.7171H160.879V31.632H163.89V33.5907C164.942 32.1874 166.404 31.4858 168.304 31.4858L168.217 31.4565Z" fill="white"/>
<path d="M194.382 55.312H197.598V78.349H194.382V55.312ZM208.122 78.349H204.263L197.715 69.8417L203.591 63.2639H207.567L201.515 69.8709L208.122 78.349Z" fill="white"/>
<path d="M90.8323 23.6509H94.0481V46.6586H90.8323V23.6509ZM104.573 46.6879H100.714L94.165 38.1806L100.041 31.6027H104.017L97.9363 38.2098L104.573 46.6879Z" fill="white"/>
<path d="M30.5796 50.9853L68.6724 72.8237C69.988 73.5838 71.6836 72.619 71.6836 71.0988V30.8718C71.6836 29.3516 70.0172 28.3869 68.6724 29.147L30.5796 50.9853Z" fill="#31CB9E"/>
<path d="M66.4506 19.7333L41.1626 0.409182C39.9932 -0.46786 38.2975 0.146069 37.976 1.57857L28.7378 44.6121L66.246 23.0661C67.5031 22.3352 67.62 20.6104 66.4506 19.7333Z" fill="#31CB9E"/>
<path d="M41.1626 101.591L66.5091 82.2372C67.6492 81.3602 67.5323 79.6353 66.3044 78.9045L28.7378 57.3877L38.0052 100.421C38.2683 101.854 39.9639 102.468 41.1626 101.591Z" fill="#31CB9E"/>
<path d="M20.8151 50.9853L30.7842 4.61905C31.1642 2.80649 29.0886 1.4617 27.5976 2.63109L2.07567 22.1306C0.760103 23.1246 0 24.7033 0 26.3405V75.7179C0 77.355 0.760103 78.9337 2.07567 79.9277L27.5976 99.398C29.0593 100.509 31.1642 99.1934 30.7842 97.4101L20.8151 50.9853Z" fill="#31CB9E"/>
</svg>
