<svg width="21" height="20" viewBox="0 0 21 20" fill="none" xmlns="http://www.w3.org/2000/svg">
<g clip-path="url(#clip0_102_2200)">
<path d="M17.283 17.7263C17.283 17.7302 16.6814 19.2302 15.072 18.5271C14.197 18.1443 8.74781 13.7029 7.52906 12.7732C9.90406 10.6404 12.2752 8.50366 14.6502 6.37085L5.73609 12.0232C4.27906 11.531 2.81812 11.0466 1.36109 10.5505C0.0603109 10.1326 -0.0881266 8.68726 1.365 8.13648L18.2869 1.50366C18.4509 1.43335 20.3337 0.718508 20.3337 2.39429L17.283 17.7263ZM16.3845 17.3904L19.3728 2.32007C19.322 2.09741 18.6541 2.38648 18.6502 2.38648L1.69312 9.03882C1.16187 9.2146 1.15015 9.4646 1.6775 9.6521L5.60719 10.9724L16.1853 4.25757C16.5447 4.03882 17.0877 3.88257 17.4002 4.26148C17.7166 4.64429 17.4509 5.11304 17.1423 5.4021C16.8377 5.68726 10.8533 11.0662 9.02516 12.7107L15.5056 17.6677C16.072 17.8904 16.322 17.5115 16.3845 17.3904Z" fill="#A7B6BD"/>
</g>
<defs>
<clipPath id="clip0_102_2200">
<rect width="20" height="20" fill="white" transform="translate(0.333344)"/>
</clipPath>
</defs>
</svg>
