<svg width="21" height="20" viewBox="0 0 21 20" fill="none" xmlns="http://www.w3.org/2000/svg">
<g clip-path="url(#clip0_102_2201)">
<path d="M8.94918 6.54679C8.53501 6.29929 8.00418 6.59846 8.00418 7.08345V12.9168C8.00418 13.4043 8.53585 13.6993 8.94918 13.4543L13.84 10.5418C14.2467 10.2993 14.2458 9.71095 13.8408 9.46762L8.94918 6.54679ZM9.25418 11.8176V8.18429L12.3 10.0035L9.25418 11.8176Z" fill="#A7B6BD"/>
<path d="M17.2534 2.72606C13.3759 2.15023 7.95919 2.15023 4.08002 2.72606C2.52835 2.95606 1.30585 4.1744 1.03919 5.75606C0.54252 8.6919 0.54252 11.3094 1.03919 14.2444C1.30585 15.8269 2.52835 17.0444 4.08002 17.2744C6.02335 17.5627 8.35002 17.7069 10.6759 17.7069C12.9975 17.7069 15.3184 17.5636 17.2542 17.2752C18.8042 17.0452 20.0259 15.8277 20.2942 14.2452C20.7909 11.3094 20.7909 8.69106 20.2942 5.75523C20.0275 4.1744 18.805 2.95606 17.2534 2.72606ZM19.0617 14.0369C18.8842 15.0836 18.0842 15.8886 17.07 16.0386C13.305 16.5977 8.03835 16.5977 4.26335 16.0377C3.24835 15.8869 2.44752 15.0827 2.27085 14.0361C1.79252 11.2077 1.79252 8.79356 2.27085 5.96356C2.44835 4.9169 3.24835 4.11356 4.26419 3.9619C6.14919 3.68273 8.40835 3.54273 10.6659 3.54273C12.925 3.54273 15.1842 3.68273 17.0692 3.9619C18.0842 4.11273 18.885 4.9169 19.0617 5.96356C19.54 8.79356 19.54 11.2077 19.0617 14.0369Z" fill="#A7B6BD"/>
</g>
<defs>
<clipPath id="clip0_102_2201">
<rect width="20" height="20" fill="white" transform="translate(0.666687)"/>
</clipPath>
</defs>
</svg>
