<svg width="21" height="16" viewBox="0 0 21 16" fill="none" xmlns="http://www.w3.org/2000/svg">
<path d="M8.30163 0.500174C8.65538 0.507674 8.98913 0.665174 9.22038 0.932674L9.37038 1.10517L9.41288 1.16267C10.1504 1.09642 10.8954 1.08767 11.6454 1.13767L11.9066 1.16142L12.1329 0.910174C12.3729 0.647674 12.7129 0.497674 13.0679 0.500174H13.1554C13.6304 0.512674 14.2404 0.591424 14.9404 0.780174C15.9779 1.06142 17.0091 1.53267 17.9879 2.23767C18.1316 2.34142 18.2504 2.47517 18.3404 2.62767C18.6454 3.15642 19.0816 4.06767 19.5141 5.27767C20.2341 7.29267 20.6666 9.42767 20.6666 11.6002C20.6666 12.0027 20.5204 12.3077 20.3004 12.5164L20.2841 12.5277L20.0904 12.7627C19.8029 13.0889 19.4504 13.4102 19.0304 13.7064C17.9279 14.4839 16.5454 14.9652 14.8804 15.0164C14.5054 15.0289 14.1454 14.8702 13.8991 14.5864L13.0354 13.5802L12.8904 13.6102C11.5866 13.8464 10.3029 13.8527 9.03163 13.6727L8.55663 13.5952L8.32913 13.5489L7.96288 13.9864L7.43163 14.6039C7.18538 14.8852 6.82663 15.0414 6.45163 15.0314C4.78163 14.9802 3.39413 14.4939 2.29163 13.7114C1.56413 13.1939 1.09538 12.6577 0.847876 12.2502C0.729126 12.0514 0.666626 11.8277 0.666626 11.6002C0.666626 9.42767 1.09913 7.29267 1.81913 5.27767C2.17288 4.28767 2.52913 3.49767 2.81413 2.95267L2.99288 2.62767C3.08288 2.47267 3.20413 2.34017 3.34913 2.23642C4.40788 1.47767 5.52288 0.990174 6.62788 0.721424C7.32538 0.552674 7.89538 0.496424 8.28413 0.500174H8.30163ZM8.27538 1.75017C8.27538 1.75017 6.23538 1.70642 4.07538 3.25267C4.07663 3.25267 1.91663 6.99267 1.91663 11.6002C1.91663 11.6002 3.17663 13.6802 6.49038 13.7814C6.49038 13.7814 6.70038 13.5402 6.96663 13.2277L7.49538 12.5977C5.93663 12.1477 5.17163 11.3027 4.94538 11.0102L4.87038 10.9077C4.87038 10.9077 4.92038 10.9402 5.01163 10.9952L5.29038 11.1527C5.29538 11.1527 5.30038 11.1539 5.30663 11.1577L5.76663 11.3977C6.04663 11.5339 6.32163 11.6477 6.57913 11.7452L6.89788 11.8652C7.44288 12.0614 8.07288 12.2339 8.78538 12.3652C9.91038 12.5677 11.2291 12.6402 12.6691 12.3802C13.3729 12.2502 14.0941 12.0627 14.8429 11.7589L15.1104 11.6589C15.5641 11.4764 16.0554 11.2327 16.5679 10.9077C16.5679 10.9077 15.8179 12.0777 13.8529 12.6114L14.8429 13.7664C17.5854 13.6839 18.9216 12.2439 19.3004 11.7589L19.4166 11.6002C19.4166 7.74017 17.9004 4.48767 17.4091 3.53517L17.2566 3.25267C15.3429 1.87267 13.4991 1.75892 13.1266 1.75017H13.0579L12.8491 1.98017C14.8879 2.56892 16.0541 3.38017 16.4391 3.68142L16.5829 3.80017C15.0229 2.99142 13.4929 2.58767 12.0691 2.42767C10.9891 2.31267 9.95413 2.34017 9.03913 2.45642C8.94913 2.45642 8.87413 2.47142 8.78413 2.48517C8.25913 2.54392 6.98413 2.71642 5.38038 3.39517C5.10288 3.51142 4.88163 3.61267 4.73038 3.68392L4.49538 3.80017C4.49538 3.80017 5.72538 2.65892 8.42538 1.92267L8.27538 1.75017ZM13.3429 7.08017C14.1829 7.08017 14.8729 7.78767 14.8729 8.66767C14.8729 9.55017 14.1979 10.2577 13.3429 10.2577C12.5041 10.2577 11.8141 9.55017 11.8141 8.66892C11.8141 7.78767 12.4891 7.08017 13.3429 7.08017ZM7.87038 7.08017C8.72413 7.08017 9.41413 7.78767 9.39913 8.66767C9.39913 9.55017 8.72413 10.2577 7.87038 10.2577C7.03038 10.2577 6.34038 9.55017 6.34038 8.66892C6.34038 7.78767 7.01538 7.08017 7.87038 7.08017Z" fill="#A7B6BD"/>
</svg>
