<svg width="21" height="20" viewBox="0 0 21 20" fill="none" xmlns="http://www.w3.org/2000/svg">
<g clip-path="url(#clip0_102_2205)">
<path d="M7.35601 12.6532C8.10028 12.6532 8.70363 12.0499 8.70363 11.3056C8.70363 10.5614 8.10028 9.95801 7.35601 9.95801C6.61174 9.95801 6.00839 10.5614 6.00839 11.3056C6.00839 12.0499 6.61174 12.6532 7.35601 12.6532Z" fill="#A7B6BD"/>
<path d="M20.334 10.2155C20.334 8.5503 19.0231 7.19571 17.4118 7.19571C16.8464 7.19571 16.3215 7.36686 15.8746 7.65337C14.4884 6.84835 12.7401 6.34822 10.8309 6.27976L11.9313 3.12054L14.2107 3.6663C14.2031 3.74173 14.1885 3.81399 14.1885 3.89133C14.1885 5.14767 15.211 6.1701 16.468 6.1701C17.723 6.1701 18.7474 5.1483 18.7474 3.89133C18.7474 2.63435 17.7237 1.61255 16.468 1.61255C15.6484 1.61255 14.9359 2.04992 14.5346 2.69964L11.2753 1.91998L9.75396 6.2861C7.8536 6.38372 6.12376 6.91364 4.76347 7.74021C4.79072 7.72119 4.81418 7.69964 4.84143 7.68063C4.38378 7.3751 3.84055 7.19508 3.25611 7.19508C1.64417 7.19508 0.333954 8.54903 0.333954 10.2149C0.333954 11.3286 0.926626 12.2946 1.79947 12.8163C2.15698 15.9299 5.86831 18.3874 10.3878 18.3874C14.9365 18.3874 18.6669 15.8969 18.9825 12.7548C19.7926 12.2204 20.334 11.2829 20.334 10.2155ZM16.4667 2.62802C17.1633 2.62802 17.7306 3.19533 17.7306 3.89259C17.7306 4.58922 17.1627 5.15654 16.4667 5.15654C15.7675 5.15654 15.2015 4.58922 15.2015 3.89259C15.2015 3.1947 15.7694 2.62802 16.4667 2.62802ZM3.25548 8.20991C3.48558 8.20991 3.70236 8.25999 3.90647 8.33859C2.80353 9.22284 2.06253 10.3321 1.83941 11.5568C1.53451 11.2005 1.34625 10.7315 1.34625 10.2155C1.34625 9.11001 2.20325 8.20991 3.25548 8.20991ZM10.3866 17.3745C6.18968 17.3745 2.77627 15.1103 2.77627 12.3269C2.77627 9.54295 6.18968 7.27938 10.3866 7.27938C14.5828 7.27938 17.9956 9.54358 17.9956 12.3269C17.9956 15.1096 14.5828 17.3745 10.3866 17.3745ZM18.909 11.4465C18.6599 10.2548 17.9208 9.17657 16.835 8.3145C17.0182 8.25238 17.2096 8.20991 17.4118 8.20991C18.4634 8.20991 19.3198 9.10938 19.3198 10.2155C19.3185 10.6808 19.1626 11.1061 18.909 11.4465Z" fill="#A7B6BD"/>
<path d="M13.1509 12.6532C13.8951 12.6532 14.4985 12.0499 14.4985 11.3056C14.4985 10.5614 13.8951 9.95801 13.1509 9.95801C12.4066 9.95801 11.8033 10.5614 11.8033 11.3056C11.8033 12.0499 12.4066 12.6532 13.1509 12.6532Z" fill="#A7B6BD"/>
<path d="M12.9341 14.3014C10.0791 16.186 7.77564 14.4105 7.67295 14.33C7.45426 14.1544 7.13606 14.1893 6.96111 14.4067C6.78616 14.626 6.81912 14.9442 7.03717 15.1198C7.05619 15.1356 8.37211 16.1701 10.2832 16.1701C11.2334 16.1701 12.3319 15.9134 13.4919 15.1483C13.7258 14.9936 13.7905 14.6792 13.6371 14.4466C13.4818 14.2121 13.1674 14.1468 12.9341 14.3014Z" fill="#A7B6BD"/>
</g>
<defs>
<clipPath id="clip0_102_2205">
<rect width="20.0006" height="20" fill="white" transform="translate(0.333313)"/>
</clipPath>
</defs>
</svg>
