<svg width="20" height="20" viewBox="0 0 20 20" fill="none" xmlns="http://www.w3.org/2000/svg">
<path d="M17.6667 7.79395C17.6667 7.49479 17.4242 7.25228 17.125 7.25228C16.8258 7.25228 16.5833 7.49479 16.5833 7.79395H17.6667ZM2.93672 13.9441C2.75976 13.7029 2.42077 13.6508 2.17957 13.8278C1.93838 14.0048 1.88631 14.3438 2.06328 14.585L2.93672 13.9441ZM2.40837 13.7308C2.11353 13.7815 1.91553 14.0615 1.96614 14.3563C2.01674 14.6512 2.29679 14.8492 2.59163 14.7986L2.40837 13.7308ZM4.9375 13.4559L5.1089 13.9697C5.28667 13.9104 5.42116 13.7634 5.46449 13.5811C5.50782 13.3988 5.45383 13.207 5.32174 13.0741L4.9375 13.4559ZM4.125 3.75L4.6016 3.4926C4.51292 3.3284 4.34596 3.22141 4.15972 3.20945C3.97349 3.19748 3.79422 3.28223 3.68525 3.43373L4.125 3.75ZM9 7.79412L8.87263 8.32059C9.03098 8.35891 9.19816 8.32391 9.32785 8.2253C9.45754 8.12668 9.53596 7.97494 9.54137 7.81211L9 7.79412ZM16.3125 5.36765L15.8609 5.6667C15.9612 5.8182 16.1308 5.90931 16.3125 5.90931V5.36765ZM18.75 5.36765L19.2001 5.66905C19.3113 5.5029 19.322 5.28896 19.2278 5.11256C19.1337 4.93615 18.95 4.82598 18.75 4.82598V5.36765ZM16.6749 7.49271C16.5085 7.74127 16.575 8.07772 16.8236 8.24418C17.0722 8.41064 17.4086 8.34409 17.5751 8.09552L16.6749 7.49271ZM16.5833 7.79395C16.5833 10.5245 15.8001 12.8127 14.3837 14.4108C12.9745 16.0006 10.8944 16.9582 8.1875 16.9582V18.0415C11.1681 18.0415 13.5568 16.977 15.1944 15.1293C16.8249 13.2899 17.6667 10.7251 17.6667 7.79395H16.5833ZM8.1875 16.9582C6.66637 16.9582 5.63877 16.5662 4.86248 16.0193C4.06979 15.461 3.50665 14.7209 2.93672 13.9441L2.06328 14.585C2.62815 15.3548 3.28375 16.2324 4.23861 16.905C5.20988 17.5892 6.45863 18.0415 8.1875 18.0415V16.9582ZM2.59163 14.7986C2.60874 14.7956 2.622 14.7925 2.6266 14.7914C2.63286 14.7899 2.63794 14.7885 2.64101 14.7877C2.64716 14.7861 2.65221 14.7846 2.65492 14.7838C2.66067 14.7821 2.66605 14.7805 2.6698 14.7793C2.67776 14.7769 2.68733 14.7738 2.69742 14.7706C2.71801 14.764 2.74642 14.7547 2.7809 14.7434C2.85014 14.7207 2.9471 14.6887 3.0621 14.6507C3.29225 14.5745 3.59645 14.4734 3.89956 14.3726C4.20273 14.2717 4.50506 14.171 4.73158 14.0955C4.84485 14.0578 4.93917 14.0263 5.00518 14.0043C5.03818 13.9933 5.06411 13.9847 5.08178 13.9788C5.09062 13.9758 5.0974 13.9736 5.10197 13.972C5.10425 13.9713 5.10598 13.9707 5.10714 13.9703C5.10772 13.9701 5.10816 13.97 5.10845 13.9699C5.1086 13.9698 5.10871 13.9698 5.10879 13.9698C5.10882 13.9697 5.10885 13.9697 5.10887 13.9697C5.10889 13.9697 5.1089 13.9697 4.9375 13.4559C4.7661 12.942 4.76609 12.942 4.76608 12.9421C4.76606 12.9421 4.76603 12.9421 4.76599 12.9421C4.76592 12.9421 4.76581 12.9421 4.76567 12.9422C4.76538 12.9423 4.76494 12.9424 4.76436 12.9426C4.7632 12.943 4.76148 12.9436 4.7592 12.9444C4.75464 12.9459 4.74787 12.9481 4.73904 12.9511C4.72139 12.957 4.69548 12.9656 4.6625 12.9766C4.59653 12.9986 4.50227 13.03 4.38906 13.0677C4.16264 13.1432 3.8605 13.2439 3.55758 13.3446C3.25459 13.4454 2.95104 13.5463 2.72171 13.6222C2.60696 13.6602 2.51125 13.6918 2.4436 13.7139C2.40965 13.725 2.38357 13.7335 2.36596 13.7392C2.35695 13.7421 2.35149 13.7438 2.3488 13.7446C2.34721 13.7451 2.34835 13.7448 2.35099 13.744C2.35215 13.7437 2.35593 13.7426 2.36108 13.7412C2.36366 13.7405 2.36832 13.7393 2.37423 13.7379C2.37849 13.7368 2.39147 13.7337 2.40837 13.7308L2.59163 14.7986ZM5.32174 13.0741C2.79824 10.5344 2.60926 6.78522 4.56475 4.06627L3.68525 3.43373C1.42657 6.57426 1.64926 10.9151 4.55326 13.8377L5.32174 13.0741ZM3.6484 4.0074C4.70099 5.95634 6.67758 7.78953 8.87263 8.32059L9.12737 7.26764C7.30325 6.82632 5.54776 5.24448 4.6016 3.4926L3.6484 4.0074ZM9.54137 7.81211C9.57623 6.76294 9.94868 5.8864 10.5492 5.27556C11.1469 4.6675 12.0006 4.29167 13.0625 4.29167V3.20833C11.7312 3.20833 10.5924 3.68626 9.77661 4.51611C8.96357 5.34317 8.50141 6.48869 8.45863 7.77613L9.54137 7.81211ZM13.0625 4.29167C13.8077 4.29167 14.3637 4.4326 14.7963 4.66242C15.2276 4.89157 15.5695 5.22675 15.8609 5.6667L16.7641 5.06859C16.3937 4.5092 15.9254 4.03555 15.3045 3.70572C14.685 3.37655 13.9468 3.20833 13.0625 3.20833V4.29167ZM16.3125 5.90931H18.75V4.82598H16.3125V5.90931ZM18.2999 5.06624L16.6749 7.49271L17.5751 8.09552L19.2001 5.66905L18.2999 5.06624Z" fill="#A7B6BD"/>
</svg>
